<?xml version="1.0" encoding="utf-8"?>
<!-- Generator: Adobe Illustrator 22.1.0, SVG Export Plug-In . SVG Version: 6.00 Build 0)  -->
<svg version="1.1" id="Capa_1" xmlns="http://www.w3.org/2000/svg" xmlns:xlink="http://www.w3.org/1999/xlink" x="0px" y="0px"
	 viewBox="0 0 496.8 496.8" style="enable-background:new 0 0 496.8 496.8;" xml:space="preserve">
<style type="text/css">
	.st0{fill:#FFFFFF;}
</style>
<g>
	<path class="st0" d="M496.8,496.5l-13.2-37.2L368.7,344.4c8.7-14.8,16.2-30.8,22.5-48c16.4-44.7,24.7-97.5,24.7-156.9v-15.3h-15.3
		c-1.1,0-2.2,0-3.3,0l34.9-34.9c1.2,0.9,2.3,1.9,3.4,3c10.4,10.4,12.5,25.9,6.4,38.3c12.4,5.7,27.5,3.5,37.6-6.7
		c10.2-10.2,12.4-25.3,6.7-37.6c-12.5,6.1-28,4-38.3-6.4c-1.1-1.1-2.1-2.2-2.9-3.4l27.3-27.3c7.7,5.3,21.1,0.6,23.5-1.8
		c3.7-3.7-3.7-17-16.4-29.7C466.6,4.9,453.3-2.5,449.6,1.2c-2.4,2.4-7.1,15.8-1.8,23.5l-27.3,27.3c-1.2-0.9-2.3-1.9-3.4-2.9
		c-10.4-10.4-12.5-25.9-6.4-38.3c-12.4-5.7-27.5-3.5-37.6,6.7C363,27.5,360.8,42.7,366.5,55c12.5-6.1,28-4,38.3,6.4
		c1.1,1.1,2.1,2.2,2.9,3.4l-53.6,53.6c-72.9-19-105.8-78-105.8-78s-32.2,59.2-105.7,78.1L89,64.8c0.9-1.2,1.9-2.3,2.9-3.4
		c10.4-10.4,25.9-12.5,38.3-6.4c5.7-12.4,3.5-27.5-6.7-37.6C113.4,7.2,98.3,4.9,85.9,10.6c6.1,12.5,4,28-6.4,38.3
		c-1.1,1.1-2.2,2.1-3.4,2.9L48.9,24.7c5.3-7.7,0.6-21.1-1.8-23.5c-3.7-3.7-17,3.7-29.7,16.4C4.6,30.4-2.7,43.7,0.9,47.4
		c2.4,2.4,15.8,7.1,23.5,1.8l27.3,27.3c-0.9,1.2-1.9,2.3-2.9,3.4c-10.4,10.4-25.9,12.5-38.3,6.4c-5.7,12.4-3.5,27.5,6.7,37.6
		c10.2,10.2,25.3,12.4,37.6,6.7c-6.1-12.5-4-28,6.4-38.3c1.1-1.1,2.2-2.1,3.4-3l34.9,34.9c-1.1,0-2.2,0-3.3,0H80.8v15.3
		c0,59.5,8.3,112.3,24.7,156.9c6.3,17.2,13.9,33.2,22.5,48L13.2,459.3L0,496.5l37.7-12.7L148,373.6c4.2,5.3,8.6,10.4,13.2,15.2
		c40.8,43.3,82.1,53.2,83.8,53.6l3.4,0.8l3.4-0.8c1.7-0.4,43.1-10.3,83.8-53.6c4.6-4.8,9-9.9,13.2-15.2l110.3,110.3L496.8,496.5z
		 M313.4,367.8c-27.6,29.3-55.4,40.5-65,43.7c-9.6-3.2-37.4-14.4-65-43.7c-20.7-21.9-37.2-49.5-49.1-81.9
		c-13.8-37.6-21.4-81.8-22.7-131.6c66.9-4.5,111.4-37.5,136.9-64.3c25.7,26.7,70.3,59.7,136.6,64.2c-1.2,49.8-8.9,94-22.7,131.6
		C350.6,318.3,334.1,345.9,313.4,367.8z"/>
</g>
</svg>
